STARTFONT 2.1
COMMENT Recovered from 16fg.ast (MIT CADR textual AST font source)
FONT MIT-CADR-16FG
SIZE 16 72 72
FONTBOUNDINGBOX 10 16 0 -5
STARTPROPERTIES 2
FONT_ASCENT 11
FONT_DESCENT 5
ENDPROPERTIES
CHARS 94
STARTCHAR C000B
ENCODING -1 11
SWIDTH 625 0
DWIDTH 10 0
BBX 6 16 2 -5
BITMAP
00
00
30
78
FC
B4
30
30
30
30
00
00
00
00
00
00
ENDCHAR
STARTCHAR C0018
ENCODING -1 24
SWIDTH 625 0
DWIDTH 10 0
BBX 8 16 1 -5
BITMAP
00
00
00
30
60
FF
FF
60
30
00
00
00
00
00
00
00
ENDCHAR
STARTCHAR C0020
ENCODING -1 32
SWIDTH 625 0
DWIDTH 10 0
BBX 1 16 0 -5
BITMAP
00
00
00
00
00
00
00
00
00
00
00
00
00
00
00
00
ENDCHAR
STARTCHAR C0021
ENCODING -1 33
SWIDTH 625 0
DWIDTH 10 0
BBX 2 16 4 -5
BITMAP
00
C0
C0
C0
C0
C0
C0
C0
00
C0
C0
00
00
00
00
00
ENDCHAR
STARTCHAR C0022
ENCODING -1 34
SWIDTH 625 0
DWIDTH 10 0
BBX 6 16 2 -5
BITMAP
00
CC
CC
CC
CC
CC
00
00
00
00
00
00
00
00
00
00
ENDCHAR
STARTCHAR C0023
ENCODING -1 35
SWIDTH 625 0
DWIDTH 10 0
BBX 8 16 1 -5
BITMAP
00
09
1B
12
7F
24
FE
48
D8
90
00
00
00
00
00
00
ENDCHAR
STARTCHAR C0024
ENCODING -1 36
SWIDTH 625 0
DWIDTH 10 0
BBX 7 16 2 -5
BITMAP
10
7C
D6
D0
F0
7C
1E
16
16
D6
7C
10
10
00
00
00
ENDCHAR
STARTCHAR C0025
ENCODING -1 37
SWIDTH 625 0
DWIDTH 10 0
BBX 8 16 1 -5
BITMAP
00
43
A2
A4
4C
08
10
32
25
45
C2
00
00
00
00
00
ENDCHAR
STARTCHAR C0026
ENCODING -1 38
SWIDTH 625 0
DWIDTH 10 0
BBX 8 16 1 -5
BITMAP
00
38
6C
6C
6C
38
6D
C7
C6
EF
7D
00
00
00
00
00
ENDCHAR
STARTCHAR C0027
ENCODING -1 39
SWIDTH 625 0
DWIDTH 10 0
BBX 2 16 4 -5
BITMAP
00
C0
C0
C0
C0
C0
00
00
00
00
00
00
00
00
00
00
ENDCHAR
STARTCHAR C0028
ENCODING -1 40
SWIDTH 625 0
DWIDTH 10 0
BBX 5 16 2 -5
BITMAP
18
30
60
60
C0
C0
C0
C0
C0
C0
C0
C0
60
60
30
18
ENDCHAR
STARTCHAR C0029
ENCODING -1 41
SWIDTH 625 0
DWIDTH 10 0
BBX 5 16 3 -5
BITMAP
C0
60
30
30
18
18
18
18
18
18
18
18
30
30
60
C0
ENDCHAR
STARTCHAR C002A
ENCODING -1 42
SWIDTH 625 0
DWIDTH 10 0
BBX 6 16 2 -5
BITMAP
00
30
B4
FC
78
FC
B4
30
00
00
00
00
00
00
00
00
ENDCHAR
STARTCHAR C002B
ENCODING -1 43
SWIDTH 625 0
DWIDTH 10 0
BBX 8 16 1 -5
BITMAP
00
00
18
18
18
FF
FF
18
18
18
00
00
00
00
00
00
ENDCHAR
STARTCHAR C002C
ENCODING -1 44
SWIDTH 625 0
DWIDTH 10 0
BBX 3 16 4 -5
BITMAP
00
00
00
00
00
00
00
00
00
E0
E0
20
60
C0
00
00
ENDCHAR
STARTCHAR C002D
ENCODING -1 45
SWIDTH 625 0
DWIDTH 10 0
BBX 6 16 2 -5
BITMAP
00
00
00
00
00
FC
FC
00
00
00
00
00
00
00
00
00
ENDCHAR
STARTCHAR C002E
ENCODING -1 46
SWIDTH 625 0
DWIDTH 10 0
BBX 2 16 4 -5
BITMAP
00
00
00
00
00
00
00
00
00
C0
C0
00
00
00
00
00
ENDCHAR
STARTCHAR C002F
ENCODING -1 47
SWIDTH 625 0
DWIDTH 10 0
BBX 8 16 1 -5
BITMAP
00
03
03
06
06
0C
0C
18
18
30
30
60
60
C0
C0
00
ENDCHAR
STARTCHAR C0030
ENCODING -1 48
SWIDTH 625 0
DWIDTH 10 0
BBX 6 16 2 -5
BITMAP
00
78
CC
CC
CC
CC
CC
CC
CC
CC
78
00
00
00
00
00
ENDCHAR
STARTCHAR C0031
ENCODING -1 49
SWIDTH 625 0
DWIDTH 10 0
BBX 6 16 2 -5
BITMAP
00
F0
30
30
30
30
30
30
30
30
FC
00
00
00
00
00
ENDCHAR
STARTCHAR C0032
ENCODING -1 50
SWIDTH 625 0
DWIDTH 10 0
BBX 6 16 2 -5
BITMAP
00
78
CC
84
0C
18
30
60
C0
C0
FC
00
00
00
00
00
ENDCHAR
STARTCHAR C0033
ENCODING -1 51
SWIDTH 625 0
DWIDTH 10 0
BBX 7 16 2 -5
BITMAP
00
7C
CE
06
0E
3C
0C
06
86
CE
7C
00
00
00
00
00
ENDCHAR
STARTCHAR C0034
ENCODING -1 52
SWIDTH 625 0
DWIDTH 10 0
BBX 7 16 2 -5
BITMAP
00
1C
1C
2C
6C
4C
CC
8C
FE
0C
0C
00
00
00
00
00
ENDCHAR
STARTCHAR C0035
ENCODING -1 53
SWIDTH 625 0
DWIDTH 10 0
BBX 6 16 2 -5
BITMAP
00
FC
C0
C0
C0
F8
0C
0C
0C
CC
78
00
00
00
00
00
ENDCHAR
STARTCHAR C0036
ENCODING -1 54
SWIDTH 625 0
DWIDTH 10 0
BBX 6 16 2 -5
BITMAP
00
38
6C
C0
C0
F8
CC
CC
CC
CC
78
00
00
00
00
00
ENDCHAR
STARTCHAR C0037
ENCODING -1 55
SWIDTH 625 0
DWIDTH 10 0
BBX 6 16 2 -5
BITMAP
00
FC
0C
18
18
30
30
60
60
C0
C0
00
00
00
00
00
ENDCHAR
STARTCHAR C0038
ENCODING -1 56
SWIDTH 625 0
DWIDTH 10 0
BBX 8 16 1 -5
BITMAP
00
3C
66
66
66
3C
66
C3
C3
E7
7E
00
00
00
00
00
ENDCHAR
STARTCHAR C0039
ENCODING -1 57
SWIDTH 625 0
DWIDTH 10 0
BBX 6 16 2 -5
BITMAP
00
78
CC
CC
CC
CC
7C
0C
0C
DC
78
00
00
00
00
00
ENDCHAR
STARTCHAR C003A
ENCODING -1 58
SWIDTH 625 0
DWIDTH 10 0
BBX 3 16 4 -5
BITMAP
00
00
00
00
E0
E0
00
00
00
E0
E0
00
00
00
00
00
ENDCHAR
STARTCHAR C003B
ENCODING -1 59
SWIDTH 625 0
DWIDTH 10 0
BBX 3 16 4 -5
BITMAP
00
00
00
00
E0
E0
00
00
00
E0
E0
20
60
C0
00
00
ENDCHAR
STARTCHAR C003C
ENCODING -1 60
SWIDTH 625 0
DWIDTH 10 0
BBX 7 16 1 -5
BITMAP
00
00
06
0C
18
30
60
C0
60
30
18
0C
06
00
00
00
ENDCHAR
STARTCHAR C003D
ENCODING -1 61
SWIDTH 625 0
DWIDTH 10 0
BBX 6 16 2 -5
BITMAP
00
00
00
00
00
FC
00
FC
00
00
00
00
00
00
00
00
ENDCHAR
STARTCHAR C003E
ENCODING -1 62
SWIDTH 625 0
DWIDTH 10 0
BBX 7 16 2 -5
BITMAP
00
00
C0
60
30
18
0C
06
0C
18
30
60
C0
00
00
00
ENDCHAR
STARTCHAR C003F
ENCODING -1 63
SWIDTH 625 0
DWIDTH 10 0
BBX 6 16 2 -5
BITMAP
00
78
CC
CC
0C
18
30
30
00
30
30
00
00
00
00
00
ENDCHAR
STARTCHAR C0040
ENCODING -1 64
SWIDTH 625 0
DWIDTH 10 0
BBX 8 16 1 -5
BITMAP
00
3C
66
C3
CF
DB
DB
DB
CE
60
3C
00
00
00
00
00
ENDCHAR
STARTCHAR C0041
ENCODING -1 65
SWIDTH 625 0
DWIDTH 10 0
BBX 9 16 0 -5
BITMAP
0000
1C00
1C00
3600
3600
3600
6300
6300
7F00
C180
C180
0000
0000
0000
0000
0000
ENDCHAR
STARTCHAR C0042
ENCODING -1 66
SWIDTH 625 0
DWIDTH 10 0
BBX 7 16 2 -5
BITMAP
00
F8
CC
CC
CC
F8
CC
C6
C6
CE
FC
00
00
00
00
00
ENDCHAR
STARTCHAR C0043
ENCODING -1 67
SWIDTH 625 0
DWIDTH 10 0
BBX 8 16 1 -5
BITMAP
00
3E
63
C3
C0
C0
C0
C0
C3
63
3E
00
00
00
00
00
ENDCHAR
STARTCHAR C0044
ENCODING -1 68
SWIDTH 625 0
DWIDTH 10 0
BBX 7 16 2 -5
BITMAP
00
F8
CC
C6
C6
C6
C6
C6
C6
CC
F8
00
00
00
00
00
ENDCHAR
STARTCHAR C0045
ENCODING -1 69
SWIDTH 625 0
DWIDTH 10 0
BBX 6 16 2 -5
BITMAP
00
FC
C0
C0
C0
F8
C0
C0
C0
C0
FC
00
00
00
00
00
ENDCHAR
STARTCHAR C0046
ENCODING -1 70
SWIDTH 625 0
DWIDTH 10 0
BBX 6 16 2 -5
BITMAP
00
FC
C0
C0
C0
F8
C0
C0
C0
C0
C0
00
00
00
00
00
ENDCHAR
STARTCHAR C0047
ENCODING -1 71
SWIDTH 625 0
DWIDTH 10 0
BBX 8 16 1 -5
BITMAP
00
3E
63
C3
C0
C0
C7
C3
C3
67
3E
00
00
00
00
00
ENDCHAR
STARTCHAR C0048
ENCODING -1 72
SWIDTH 625 0
DWIDTH 10 0
BBX 8 16 1 -5
BITMAP
00
C3
C3
C3
C3
FF
C3
C3
C3
C3
C3
00
00
00
00
00
ENDCHAR
STARTCHAR C0049
ENCODING -1 73
SWIDTH 625 0
DWIDTH 10 0
BBX 6 16 2 -5
BITMAP
00
FC
30
30
30
30
30
30
30
30
FC
00
00
00
00
00
ENDCHAR
STARTCHAR C004A
ENCODING -1 74
SWIDTH 625 0
DWIDTH 10 0
BBX 7 16 1 -5
BITMAP
00
1E
06
06
06
06
06
C6
C6
EE
7C
00
00
00
00
00
ENDCHAR
STARTCHAR C004B
ENCODING -1 75
SWIDTH 625 0
DWIDTH 10 0
BBX 8 16 1 -5
BITMAP
00
C6
CC
D8
F0
E0
F0
D8
CC
C6
C3
00
00
00
00
00
ENDCHAR
STARTCHAR C004C
ENCODING -1 76
SWIDTH 625 0
DWIDTH 10 0
BBX 6 16 2 -5
BITMAP
00
C0
C0
C0
C0
C0
C0
C0
C0
C0
FC
00
00
00
00
00
ENDCHAR
STARTCHAR C004D
ENCODING -1 77
SWIDTH 625 0
DWIDTH 10 0
BBX 8 16 1 -5
BITMAP
00
C3
E7
E7
FF
DB
DB
DB
C3
C3
C3
00
00
00
00
00
ENDCHAR
STARTCHAR C004E
ENCODING -1 78
SWIDTH 625 0
DWIDTH 10 0
BBX 8 16 1 -5
BITMAP
00
E3
E3
F3
D3
DB
DB
CB
CF
CF
C7
00
00
00
00
00
ENDCHAR
STARTCHAR C004F
ENCODING -1 79
SWIDTH 625 0
DWIDTH 10 0
BBX 8 16 1 -5
BITMAP
00
3C
66
C3
C3
C3
C3
C3
C3
66
3C
00
00
00
00
00
ENDCHAR
STARTCHAR C0050
ENCODING -1 80
SWIDTH 625 0
DWIDTH 10 0
BBX 7 16 2 -5
BITMAP
00
FC
CE
C6
C6
CE
FC
C0
C0
C0
C0
00
00
00
00
00
ENDCHAR
STARTCHAR C0051
ENCODING -1 81
SWIDTH 625 0
DWIDTH 10 0
BBX 8 16 1 -5
BITMAP
00
3C
66
C3
C3
C3
C3
C3
C3
66
3C
0C
06
00
00
00
ENDCHAR
STARTCHAR C0052
ENCODING -1 82
SWIDTH 625 0
DWIDTH 10 0
BBX 8 16 1 -5
BITMAP
00
FC
CE
C6
C6
CE
FC
D8
CC
C6
C3
00
00
00
00
00
ENDCHAR
STARTCHAR C0053
ENCODING -1 83
SWIDTH 625 0
DWIDTH 10 0
BBX 8 16 1 -5
BITMAP
00
3C
66
C2
E0
78
1E
07
C3
E7
7E
00
00
00
00
00
ENDCHAR
STARTCHAR C0054
ENCODING -1 84
SWIDTH 625 0
DWIDTH 10 0
BBX 8 16 1 -5
BITMAP
00
FF
18
18
18
18
18
18
18
18
18
00
00
00
00
00
ENDCHAR
STARTCHAR C0055
ENCODING -1 85
SWIDTH 625 0
DWIDTH 10 0
BBX 8 16 1 -5
BITMAP
00
C3
C3
C3
C3
C3
C3
C3
C3
66
3C
00
00
00
00
00
ENDCHAR
STARTCHAR C0056
ENCODING -1 86
SWIDTH 625 0
DWIDTH 10 0
BBX 8 16 1 -5
BITMAP
00
C3
C3
C3
66
66
66
3C
3C
18
18
00
00
00
00
00
ENDCHAR
STARTCHAR C0057
ENCODING -1 87
SWIDTH 625 0
DWIDTH 10 0
BBX 10 16 0 -5
BITMAP
0000
C0C0
C0C0
C0C0
6180
6D80
6D80
2D00
3F00
3300
1200
0000
0000
0000
0000
0000
ENDCHAR
STARTCHAR C0058
ENCODING -1 88
SWIDTH 625 0
DWIDTH 10 0
BBX 8 16 1 -5
BITMAP
00
C3
C3
66
66
3C
3C
66
66
C3
C3
00
00
00
00
00
ENDCHAR
STARTCHAR C0059
ENCODING -1 89
SWIDTH 625 0
DWIDTH 10 0
BBX 8 16 1 -5
BITMAP
00
C3
C3
66
66
3C
3C
18
18
18
18
00
00
00
00
00
ENDCHAR
STARTCHAR C005A
ENCODING -1 90
SWIDTH 625 0
DWIDTH 10 0
BBX 7 16 2 -5
BITMAP
00
FE
06
06
0C
18
30
60
C0
C0
FE
00
00
00
00
00
ENDCHAR
STARTCHAR C005B
ENCODING -1 91
SWIDTH 625 0
DWIDTH 10 0
BBX 5 16 2 -5
BITMAP
F8
C0
C0
C0
C0
C0
C0
C0
C0
C0
C0
C0
C0
F8
00
00
ENDCHAR
STARTCHAR C005C
ENCODING -1 92
SWIDTH 625 0
DWIDTH 10 0
BBX 1 16 0 -5
BITMAP
00
00
00
00
00
00
00
00
00
00
00
00
00
00
00
00
ENDCHAR
STARTCHAR C005D
ENCODING -1 93
SWIDTH 625 0
DWIDTH 10 0
BBX 5 16 2 -5
BITMAP
F8
18
18
18
18
18
18
18
18
18
18
18
18
F8
00
00
ENDCHAR
STARTCHAR C0061
ENCODING -1 97
SWIDTH 625 0
DWIDTH 10 0
BBX 8 16 1 -5
BITMAP
00
00
00
3C
6E
06
76
EE
C6
EE
77
00
00
00
00
00
ENDCHAR
STARTCHAR C0062
ENCODING -1 98
SWIDTH 625 0
DWIDTH 10 0
BBX 7 16 2 -5
BITMAP
C0
C0
C0
DC
EE
C6
C6
C6
C6
EE
DC
00
00
00
00
00
ENDCHAR
STARTCHAR C0063
ENCODING -1 99
SWIDTH 625 0
DWIDTH 10 0
BBX 7 16 2 -5
BITMAP
00
00
00
3C
66
C0
C0
C0
C0
66
3C
00
00
00
00
00
ENDCHAR
STARTCHAR C0064
ENCODING -1 100
SWIDTH 625 0
DWIDTH 10 0
BBX 7 16 1 -5
BITMAP
06
06
06
76
EE
C6
C6
C6
C6
EE
76
00
00
00
00
00
ENDCHAR
STARTCHAR C0065
ENCODING -1 101
SWIDTH 625 0
DWIDTH 10 0
BBX 7 16 2 -5
BITMAP
00
00
00
38
6C
C6
FE
C0
C0
E6
7C
00
00
00
00
00
ENDCHAR
STARTCHAR C0066
ENCODING -1 102
SWIDTH 625 0
DWIDTH 10 0
BBX 8 16 1 -5
BITMAP
1E
33
30
FC
30
30
30
30
30
30
30
00
00
00
00
00
ENDCHAR
STARTCHAR C0067
ENCODING -1 103
SWIDTH 625 0
DWIDTH 10 0
BBX 7 16 1 -5
BITMAP
00
00
00
76
CE
C6
C6
C6
C6
EE
76
06
CE
7C
00
00
ENDCHAR
STARTCHAR C0068
ENCODING -1 104
SWIDTH 625 0
DWIDTH 10 0
BBX 7 16 2 -5
BITMAP
C0
C0
C0
DC
EE
C6
C6
C6
C6
C6
C6
00
00
00
00
00
ENDCHAR
STARTCHAR C0069
ENCODING -1 105
SWIDTH 625 0
DWIDTH 10 0
BBX 4 16 3 -5
BITMAP
30
30
00
F0
30
30
30
30
30
30
30
00
00
00
00
00
ENDCHAR
STARTCHAR C006A
ENCODING -1 106
SWIDTH 625 0
DWIDTH 10 0
BBX 6 16 1 -5
BITMAP
0C
0C
00
3C
0C
0C
0C
0C
0C
0C
0C
CC
CC
78
00
00
ENDCHAR
STARTCHAR C006B
ENCODING -1 107
SWIDTH 625 0
DWIDTH 10 0
BBX 7 16 2 -5
BITMAP
C0
C0
C6
CC
D8
F0
F0
D8
CC
CC
C6
00
00
00
00
00
ENDCHAR
STARTCHAR C006C
ENCODING -1 108
SWIDTH 625 0
DWIDTH 10 0
BBX 4 16 3 -5
BITMAP
F0
30
30
30
30
30
30
30
30
30
30
00
00
00
00
00
ENDCHAR
STARTCHAR C006D
ENCODING -1 109
SWIDTH 625 0
DWIDTH 10 0
BBX 8 16 1 -5
BITMAP
00
00
00
FE
DB
DB
DB
DB
DB
DB
DB
00
00
00
00
00
ENDCHAR
STARTCHAR C006E
ENCODING -1 110
SWIDTH 625 0
DWIDTH 10 0
BBX 7 16 2 -5
BITMAP
00
00
00
DC
EE
C6
C6
C6
C6
C6
C6
00
00
00
00
00
ENDCHAR
STARTCHAR C006F
ENCODING -1 111
SWIDTH 625 0
DWIDTH 10 0
BBX 8 16 1 -5
BITMAP
00
00
00
3C
66
C3
C3
C3
C3
66
3C
00
00
00
00
00
ENDCHAR
STARTCHAR C0070
ENCODING -1 112
SWIDTH 625 0
DWIDTH 10 0
BBX 7 16 2 -5
BITMAP
00
00
00
DC
EE
C6
C6
C6
C6
EE
DC
C0
C0
C0
00
00
ENDCHAR
STARTCHAR C0071
ENCODING -1 113
SWIDTH 625 0
DWIDTH 10 0
BBX 7 16 1 -5
BITMAP
00
00
00
76
CE
C6
C6
C6
C6
EE
76
06
06
06
00
00
ENDCHAR
STARTCHAR C0072
ENCODING -1 114
SWIDTH 625 0
DWIDTH 10 0
BBX 6 16 2 -5
BITMAP
00
00
00
DC
EC
C0
C0
C0
C0
C0
C0
00
00
00
00
00
ENDCHAR
STARTCHAR C0073
ENCODING -1 115
SWIDTH 625 0
DWIDTH 10 0
BBX 6 16 2 -5
BITMAP
00
00
00
78
CC
C0
F0
3C
0C
CC
78
00
00
00
00
00
ENDCHAR
STARTCHAR C0074
ENCODING -1 116
SWIDTH 625 0
DWIDTH 10 0
BBX 7 16 1 -5
BITMAP
00
30
30
FC
30
30
30
30
30
36
1C
00
00
00
00
00
ENDCHAR
STARTCHAR C0075
ENCODING -1 117
SWIDTH 625 0
DWIDTH 10 0
BBX 7 16 1 -5
BITMAP
00
00
00
C6
C6
C6
C6
C6
C6
CE
76
00
00
00
00
00
ENDCHAR
STARTCHAR C0076
ENCODING -1 118
SWIDTH 625 0
DWIDTH 10 0
BBX 8 16 1 -5
BITMAP
00
00
00
C3
C3
66
66
66
3C
3C
18
00
00
00
00
00
ENDCHAR
STARTCHAR C0077
ENCODING -1 119
SWIDTH 625 0
DWIDTH 10 0
BBX 10 16 0 -5
BITMAP
0000
0000
0000
C0C0
C0C0
CCC0
6D80
6D80
3F00
3300
3300
0000
0000
0000
0000
0000
ENDCHAR
STARTCHAR C0078
ENCODING -1 120
SWIDTH 625 0
DWIDTH 10 0
BBX 7 16 1 -5
BITMAP
00
00
00
C6
C6
6C
38
38
6C
C6
C6
00
00
00
00
00
ENDCHAR
STARTCHAR C0079
ENCODING -1 121
SWIDTH 625 0
DWIDTH 10 0
BBX 8 16 1 -5
BITMAP
00
00
00
C3
C3
66
66
24
3C
3C
18
18
D8
70
00
00
ENDCHAR
STARTCHAR C007A
ENCODING -1 122
SWIDTH 625 0
DWIDTH 10 0
BBX 7 16 2 -5
BITMAP
00
00
00
FE
06
0C
18
30
60
C0
FE
00
00
00
00
00
ENDCHAR
STARTCHAR C007B
ENCODING -1 123
SWIDTH 625 0
DWIDTH 10 0
BBX 7 16 1 -5
BITMAP
0E
18
30
30
30
30
60
C0
60
30
30
30
30
18
0E
00
ENDCHAR
STARTCHAR C007C
ENCODING -1 124
SWIDTH 625 0
DWIDTH 10 0
BBX 2 16 4 -5
BITMAP
C0
C0
C0
C0
C0
C0
C0
C0
C0
C0
C0
C0
C0
C0
00
00
ENDCHAR
STARTCHAR C007D
ENCODING -1 125
SWIDTH 625 0
DWIDTH 10 0
BBX 7 16 2 -5
BITMAP
E0
30
18
18
18
18
0C
06
0C
18
18
18
18
30
E0
00
ENDCHAR
STARTCHAR C007E
ENCODING -1 126
SWIDTH 625 0
DWIDTH 10 0
BBX 10 16 0 -5
BITMAP
0000
0000
0000
0000
1840
3D80
6F00
8600
0000
0000
0000
0000
0000
0000
0000
0000
ENDCHAR
ENDFONT
